<?xml version="1.0" standalone="no"?>
<!DOCTYPE svg PUBLIC "-//W3C//DTD SVG 1.1//EN" "http://www.w3.org/Graphics/SVG/1.1/DTD/svg11.dtd" >
<svg>
<metadata>
Created by FontForge 20090914 at Fri Feb 24 12:00:34 2012
 By root
Zenze Media (c) 2011
</metadata>
<defs>
<font id="ServeticaHeavy" horiz-adv-x="315" >
  <font-face 
    font-family="Servetica"
    font-weight="750"
    font-stretch="normal"
    units-per-em="1000"
    panose-1="2 11 8 4 2 2 2 2 2 4"
    ascent="714"
    descent="-286"
    x-height="519"
    cap-height="714"
    bbox="-169 -234 1094 950"
    underline-thickness="50"
    underline-position="-50"
    unicode-range="U+000D-U+FB02"
  />
<missing-glyph horiz-adv-x="512" 
d="M278 117v67h-56v-67h56zM271 234q0 53 6 72t43 52q63 58 63 120q0 59 -35 95t-89 36q-122 0 -135 -137l50 -8q11 95 82 95q31 0 53 -24q23 -25 23 -61q0 -35 -50 -83q-31 -31 -46 -59q-13 -25 -13 -81l2 -17h46zM50 50v617h412v-617h-412zM0 718v-718h512v718h-512z" />
    <glyph glyph-name=".notdef" horiz-adv-x="512" 
d="M278 117v67h-56v-67h56zM271 234q0 53 6 72t43 52q63 58 63 120q0 59 -35 95t-89 36q-122 0 -135 -137l50 -8q11 95 82 95q31 0 53 -24q23 -25 23 -61q0 -35 -50 -83q-31 -31 -46 -59q-13 -25 -13 -81l2 -17h46zM50 50v617h412v-617h-412zM0 718v-718h512v718h-512z" />
    <glyph glyph-name="space" unicode=" " 
 />
    <glyph glyph-name="exclam" unicode="!" horiz-adv-x="296" 
d="M55 186h186v-186h-186v186zM236 537l-46 -301h-83l-46 301v177h175v-177z" />
    <glyph glyph-name="quotedbl" unicode="&#x22;" horiz-adv-x="500" 
d="M62 714h144v-360h-144v360zM294 714h144v-360h-144v360z" />
    <glyph glyph-name="numbersign" unicode="#" horiz-adv-x="630" 
d="M411 696l-26 -187h-81l26 187h-115l-26 -187h-89v-105h74l-10 -70h115l10 70h81l-15 -109h-44v-1h-241v-104h74l-26 -190h115l26 190h81l-26 -190h114l26 190h77v105h-62l15 109h77v105h-62l26 187h-114z" />
    <glyph glyph-name="dollar" unicode="$" horiz-adv-x="630" 
d="M386 -14q107 12 169 65q72 60 72 167q0 88 -65 141q-47 38 -142 65l-38 10q-24 5 -36 9v136q76 -19 72 -86h186q0 109 -79 172q-69 54 -179 61v91h-47v-234v-128q-86 25 -86 63q0 42 45 58v147q-99 -12 -160 -62q-71 -58 -71 -155q0 -89 67 -142q46 -36 142 -64
q10 -3 63 -17v-157q-102 11 -107 108h-186q0 -124 88 -190q76 -57 205 -61v-90h47v4v0v294v0v79q95 -27 95 -74q0 -45 -55 -62v-148z" />
    <glyph glyph-name="percent" unicode="%" horiz-adv-x="1019" 
d="M260 -27l404 751h99l-404 -751h-99zM795 -7q152 11 152 191q0 90 -41 140q-44 53 -130 53q-84 0 -130 -55q-43 -52 -43 -138q0 -82 36 -132q39 -53 115 -59v84q-34 16 -34 107q0 48 7 71q13 42 49 42q34 0 47 -42q7 -24 7 -71q0 -92 -35 -108v-83zM268 324
q152 11 152 191q0 90 -41 140q-44 53 -130 53q-84 0 -130 -55q-43 -52 -43 -138q0 -82 36 -132q39 -53 115 -59v84q-34 16 -34 107q0 48 7 71q13 42 49 42q34 0 47 -42q7 -24 7 -71q0 -92 -35 -108v-83z" />
    <glyph glyph-name="ampersand" unicode="&#x26;" horiz-adv-x="722" 
d="M357 148q-37 -26 -65 -26q-36 0 -64 22q-30 24 -30 60q0 57 83 94l102 -120h1l93 -119q1 1 1 0l50 -60h207l-150 174q68 73 79 175h-146q-5 -38 -26 -71l-74 90q122 61 122 177q0 83 -61 135q-58 50 -142 50q-81 0 -140 -49q-64 -52 -64 -132q0 -53 37 -105l136 56
q-22 29 -22 57q0 23 17 38q16 15 39 15q27 0 44 -15q16 -14 16 -40q0 -49 -66 -88v0l-138 -55v0q-162 -76 -162 -209q0 -96 71 -158q69 -60 167 -60q95 0 172 51z" />
    <glyph glyph-name="quoteright" unicode="&#x2019;" horiz-adv-x="296" 
d="M69 714h159v-166q-2 -167 -159 -194v80q33 6 54 32q20 27 18 62h-72v186z" />
    <glyph glyph-name="parenleft" unicode="(" horiz-adv-x="296" 
d="M305 729q-114 -233 -110 -455q-4 -215 110 -448h-144q-121 234 -125 448q4 220 125 455h144z" />
    <glyph glyph-name="parenright" unicode=")" horiz-adv-x="296" 
d="M135 729q121 -235 125 -455q-4 -214 -125 -448h-144q114 233 110 448q4 222 -110 455h144z" />
    <glyph glyph-name="asterisk" unicode="*" horiz-adv-x="444" 
d="M374 396l-79 -59l-75 107l-74 -107l-78 58l79 104l-122 38l31 93l116 -44v128h99v-128l116 44l31 -93l-121 -38z" />
    <glyph glyph-name="plus" unicode="+" horiz-adv-x="600" 
d="M228 506h144v-181h180v-144h-180v-181h-144v181h-180v144h180v181z" />
    <glyph glyph-name="comma" unicode="," horiz-adv-x="316" 
d="M65 186h186v-165q0 -97 -65 -148q-48 -39 -121 -47v80q72 20 82 94h-82v186z" />
    <glyph glyph-name="hyphen" unicode="-" horiz-adv-x="407" 
d="M48 200v144h311v-144h-311z" />
    <glyph glyph-name="period" unicode="." horiz-adv-x="316" 
d="M65 186h186v-186h-186v186z" />
    <glyph glyph-name="slash" unicode="/" horiz-adv-x="407" 
d="M260 729h156l-269 -744h-156z" />
    <glyph glyph-name="zero" unicode="0" horiz-adv-x="630" 
d="M415 491q16 -45 16 -143q0 -99 -16 -145q-26 -76 -100 -76q-71 0 -97 76q-17 48 -17 145q0 71 9 113l-120 120q-53 -93 -53 -233q0 -154 63 -250q72 -109 210 -109q144 0 219 109q66 96 66 250t-66 248q-75 109 -219 109q-125 0 -197 -90l110 -110q27 62 92 62
q74 0 100 -76z" />
    <glyph glyph-name="one" unicode="1" horiz-adv-x="485" 
d="M41 553q83 -3 137 30q63 38 69 114h141v-697h-180v428h-167v125z" />
    <glyph glyph-name="two" unicode="2" horiz-adv-x="630" 
d="M32 0q2 139 109 232q27 23 182 122q91 60 91 116q0 87 -90 87q-116 0 -116 -141h-159q-8 129 68 210q76 80 206 80q111 0 182 -55q79 -60 79 -166q0 -89 -61 -150q-28 -29 -137 -97q-73 -43 -126 -94h331v-144h-559z" />
    <glyph glyph-name="three" unicode="3" horiz-adv-x="630" 
d="M264 426q7 1 22 0l23 -1q113 0 113 73q0 33 -29 52q-28 18 -71 18q-110 0 -108 -99h-159q2 113 78 177q72 60 188 60q105 0 175 -43q85 -52 85 -150q0 -49 -25 -87q-27 -41 -72 -49v-2q119 -31 119 -160q0 -110 -89 -171q-78 -53 -193 -53q-130 0 -208 64q-85 70 -77 198
h159q-3 -124 125 -124q47 0 78 21q35 23 35 65q0 95 -124 95q-15 0 -45 -2v118z" />
    <glyph glyph-name="four" unicode="4" horiz-adv-x="630" 
d="M343 697l-312 -383v-159h305v-155h170v155h91v144h-15v0h-294v0h-125l176 225h2v-185h165v358h-163z" />
    <glyph glyph-name="five" unicode="5" horiz-adv-x="630" 
d="M192 216q0 -39 37 -64q33 -23 75 -23q51 0 83 31q33 31 33 81q0 52 -28 83q-30 32 -82 32q-78 0 -111 -53h-154l68 394h440v-144h-309l-26 -127h2q50 50 136 50q108 0 171 -59q63 -60 63 -168q0 -124 -82 -193q-77 -65 -204 -65q-267 0 -282 225h170z" />
    <glyph glyph-name="six" unicode="6" horiz-adv-x="630" 
d="M513 58q82 70 82 190q0 95 -65 162t-160 67q-74 0 -119 -29q-10 -73 -11 -128q31 33 78 33q55 0 88 -35q30 -32 30 -82q0 -44 -32 -75q-34 -32 -85 -32q-44 0 -73 25q-29 24 -35 62q-18 58 -5 187h-1q1 26 7 51v2v2h1q30 122 131 122q29 0 49 -11q25 -18 34 -54h159
q-15 93 -83 143q-63 47 -159 47q-151 0 -232 -107q-73 -97 -73 -254q0 -151 62 -244q73 -109 216 -109q118 0 196 67z" />
    <glyph glyph-name="seven" unicode="7" horiz-adv-x="630" 
d="M60 697h507v-137q-72 -60 -149 -225q-71 -155 -73 -335h-183q6 170 92 335q74 165 140 206v2h-334v154z" />
    <glyph glyph-name="eight" unicode="8" horiz-adv-x="630" 
d="M472 371l-184 49q-16 3 -29 8l-5 1l1 1q-44 21 -44 70q0 41 32 62q28 18 74 18q45 0 74 -19q33 -21 33 -61q0 -43 -37 -65l138 -37q50 43 50 114q0 96 -83 149q-71 44 -173 44t-173 -44q-86 -52 -86 -148q0 -53 26 -90q28 -40 78 -52v0l186 -61q14 -3 27 -9v0
q56 -26 56 -88q0 -50 -36 -76q-31 -22 -80 -22t-81 23q-36 26 -36 75q0 60 54 86l-147 48q-77 -48 -77 -143q0 -112 93 -168q76 -46 195 -46q117 0 195 49q90 58 90 165q0 65 -35 110q-35 43 -96 55v2z" />
    <glyph glyph-name="nine" unicode="9" horiz-adv-x="630" 
d="M420 237q-30 -121 -131 -121q-29 0 -48 11q-26 17 -35 54h-159q15 -93 83 -143q63 -47 159 -47q150 0 231 107q74 97 74 254q0 150 -62 243q-73 109 -216 109q-118 0 -196 -66q-82 -71 -82 -190q0 -96 65 -162q65 -68 160 -68q74 0 119 29q10 74 10 129q-31 -33 -77 -33
q-55 0 -88 34q-30 32 -30 83q0 44 32 75q34 32 85 32q44 0 73 -25q29 -24 35 -63q18 -58 6 -187v0q-1 -25 -7 -50z" />
    <glyph glyph-name="colon" unicode=":" horiz-adv-x="316" 
d="M65 186h186v-186h-186v186zM251 333h-186v186h186v-186z" />
    <glyph glyph-name="semicolon" unicode=";" horiz-adv-x="316" 
d="M251 333h-186v186h186v-186zM65 186h186v-165q0 -97 -65 -148q-48 -39 -121 -47v80q72 20 82 94h-82v186z" />
    <glyph glyph-name="less" unicode="&#x3c;" horiz-adv-x="600" 
d="M46 182v142l508 190v-154l-307 -106v-2l307 -106v-154z" />
    <glyph glyph-name="equal" unicode="=" horiz-adv-x="600" 
d="M552 57h-504v144h504v-144zM552 305h-504v144h504v-144z" />
    <glyph glyph-name="greater" unicode="&#x3e;" horiz-adv-x="600" 
d="M46 146l307 106v2l-307 106v154l508 -190v-142l-508 -190v154z" />
    <glyph glyph-name="question" unicode="?" horiz-adv-x="574" 
d="M182 186h186v-186h-186v186zM31 480q2 117 74 184q70 65 188 65q102 0 172 -50q78 -56 78 -154q0 -66 -33 -108q-23 -29 -90 -72q-41 -27 -52 -45q-14 -21 -14 -64h-158v50q0 80 81 139q80 53 80 99q0 28 -19 45q-18 16 -46 16q-81 0 -86 -86v-19h-175z" />
    <glyph glyph-name="at" unicode="@" horiz-adv-x="800" 
d="M621 139q-77 -59 -187 -59q-128 0 -206 74q-81 75 -81 203q0 123 73 200q75 79 197 79q117 0 186 -61q74 -64 74 -179q0 -75 -30 -116q-26 -35 -62 -35q-13 0 -13 21q0 16 6 33l43 237h-93l-9 -48q-43 57 -122 57q-88 0 -145 -69q-54 -66 -54 -157q0 -73 50 -126
q49 -53 113 -53q25 0 47 10l24 113q-20 -9 -43 -9q-35 0 -56 23q-19 22 -19 58q0 40 27 71q29 32 71 32q35 0 57 -22q21 -22 21 -58q0 -13 -3 -28v0q-19 -92 -22 -108q-7 -36 10 -59q16 -22 45 -22q73 0 145 58q100 80 100 228q0 133 -107 219q-100 81 -238 81
q-158 0 -268 -106q-111 -107 -111 -264q0 -159 113 -265q111 -103 272 -103q184 0 292 150h-97z" />
    <glyph glyph-name="A" unicode="A" horiz-adv-x="704" 
d="M257 715l-153 -409h178l69 211h2l79 -251h-343l-99 -266h191l45 128h250l44 -128h194l-267 715h-190z" />
    <glyph glyph-name="B" unicode="B" horiz-adv-x="722" 
d="M250 149v164v121v137h144q76 0 76 -69q0 -35 -26 -54q-21 -14 -50 -14h-103v-121h108q100 0 100 -84q0 -80 -100 -80h-108v-149h116q279 0 279 222q0 61 -33 107q-33 45 -90 62q94 47 94 145q0 101 -83 146q-66 35 -176 33h-334v-715h186v149z" />
    <glyph glyph-name="C" unicode="C" horiz-adv-x="759" 
d="M538 459q-17 110 -144 110q-84 0 -128 -66q-38 -57 -38 -146t38 -146q44 -66 128 -66q133 0 144 132h186q-8 -136 -99 -215q-89 -77 -227 -77q-159 0 -259 108q-97 105 -97 264t97 264q100 108 259 108q125 0 219 -70q103 -78 107 -200h-186z" />
    <glyph glyph-name="D" unicode="D" horiz-adv-x="759" 
d="M251 160v0v394h88q197 0 197 -193q0 -107 -46 -153q-45 -46 -151 -48h-48v-160h81q165 0 256 92q94 94 94 268q0 166 -93 260t-257 94h-307v-714h186v160z" />
    <glyph glyph-name="E" unicode="E" horiz-adv-x="685" 
d="M64 714h569v-149h-383v-125h350v-144h-350v-136h393v-160h-579v714z" />
    <glyph glyph-name="F" unicode="F" horiz-adv-x="611" 
d="M64 714h526v-149h-340v-146h294v-144h-294v-275h-186v714z" />
    <glyph glyph-name="G" unicode="G" horiz-adv-x="778" 
d="M723 0h-120l-11 78q-65 -93 -199 -93q-159 0 -259 108q-97 105 -97 264t97 264q100 108 259 108q123 0 211 -61q101 -71 112 -197h-186q-5 45 -45 72q-38 26 -96 26q-84 0 -128 -66q-38 -57 -38 -146t38 -146q44 -66 128 -66q68 0 112 30q44 29 52 78h-130v138h300v-391z
" />
    <glyph glyph-name="H" unicode="H" horiz-adv-x="741" 
d="M63 714v-715h186v715h-186zM494 714v-260h-206v-160h206v-294h186v714h-186z" />
    <glyph glyph-name="I" unicode="I" 
d="M64 714h186v-714h-186v714z" />
    <glyph glyph-name="J" unicode="J" horiz-adv-x="593" 
d="M528 226q0 -241 -250 -241t-250 268v31h175v-66q0 -73 72 -73q67 0 67 93v476h186v-488z" />
    <glyph glyph-name="K" unicode="K" horiz-adv-x="741" 
d="M484 715l-235 -274v274h-186v-714h186v220l76 80v-1l126 133v1l264 281h-231zM354 260l167 -261h227l-269 393z" />
    <glyph glyph-name="L" unicode="L" horiz-adv-x="611" 
d="M64 714h186v-554h333v-160h-519v714z" />
    <glyph glyph-name="M" unicode="M" horiz-adv-x="926" 
d="M686 715v-172v0v-543h176v715h-176zM589 716l-124 -479h-2l-123 479h-276v-718h176v545h2l151 -545h143l112 406v312h-59z" />
    <glyph glyph-name="N" unicode="N" horiz-adv-x="741" 
d="M503 714v-301h1v-412h174v713h-175zM64 714v-716h175v446h3l225 -404v299l-211 375h-192z" />
    <glyph glyph-name="O" unicode="O" horiz-adv-x="778" 
d="M129 621q-92 -103 -92 -264q0 -160 92 -263q97 -108 260 -108q172 0 270 121l-131 126q-42 -87 -139 -87q-84 0 -128 66q-38 56 -38 145q0 90 38 146q44 66 128 66q83 0 127 -66q38 -56 38 -146q0 -44 -10 -83l138 -134q58 94 58 217q0 161 -92 264q-97 108 -259 108
q-163 0 -260 -108z" />
    <glyph glyph-name="P" unicode="P" horiz-adv-x="685" 
d="M64 714v-714h186v497v0v68h125q100 0 100 -94q0 -89 -100 -89h-85v-144h113q258 0 258 246q0 118 -79 178q-68 52 -179 52h-339z" />
    <glyph glyph-name="Q" unicode="Q" horiz-adv-x="778" 
d="M128 619q-92 -103 -92 -264q0 -160 92 -263q97 -108 260 -108q94 0 165 37l98 -96l85 88l-285 276l-82 -86l56 -55q-14 -4 -37 -4q-84 0 -128 66q-38 56 -38 145q0 90 38 146q44 66 128 66q83 0 127 -66q38 -56 38 -146q0 -52 -14 -95l136 -131q64 95 64 226
q0 161 -92 264q-96 108 -259 108t-260 -108z" />
    <glyph glyph-name="R" unicode="R" horiz-adv-x="722" 
d="M599 668q-68 47 -172 47h-365v-715h186v566h148q42 0 67 -19q28 -20 28 -58q0 -84 -87 -84h-114v-145h99q60 0 84 -46q16 -30 21 -100q15 -105 21 -114h184q-16 18 -30 161q-11 148 -104 171v2q55 21 84 72q28 47 28 108q0 101 -78 154z" />
    <glyph glyph-name="S" unicode="S" horiz-adv-x="667" 
d="M209 240q5 -111 135 -111q47 0 78 17q36 19 36 56q0 41 -64 65q9 -3 -141 39q-96 28 -142 64q-67 53 -67 142q0 108 95 167q81 50 196 50q117 0 196 -55q90 -63 90 -175h-186q2 44 -35 67q-32 19 -80 19q-90 0 -90 -61q0 -36 65 -57q21 -7 66 -18q55 -13 76 -19
q207 -58 207 -206q0 -126 -97 -187q-80 -52 -214 -52t-216 59q-94 67 -94 196h186z" />
    <glyph glyph-name="T" unicode="T" horiz-adv-x="648" 
d="M15 714v-160h612v160h-612zM232 1h183v505h-183v-505z" />
    <glyph glyph-name="U" unicode="U" horiz-adv-x="741" 
d="M681 295q0 -157 -74 -233q-77 -77 -237 -77t-236 77q-75 76 -75 233v419h186v-430q0 -71 28 -104q30 -35 97 -35t97 35q28 33 28 104v430h186v-419z" />
    <glyph glyph-name="V" unicode="V" horiz-adv-x="648" 
d="M-9 713l224 -712h25l65 254l-121 458h-193zM466 715l-84 -320v0l-101 -393h148l225 694l5 19h-193z" />
    <glyph glyph-name="W" unicode="W" horiz-adv-x="963" 
d="M393 716l-105 -522h-2l-101 522h-186l5 -19l188 -694h189l98 491h2l97 -491h21l52 298l-84 415h-174zM778 714l-136 -712h125l196 712h-185z" />
    <glyph glyph-name="X" unicode="X" horiz-adv-x="704" 
d="M480 714l-427 -712h155l145 237l134 -237h225l-251 374l227 333l-3 5h-205zM14 715l223 -324l89 148l-96 176h-216z" />
    <glyph glyph-name="Y" unicode="Y" horiz-adv-x="667" 
d="M-18 714l3 -5l237 -408l86 173l-118 240h-208zM477 715l-142 -290l-1 2l-92 -186v-239h186v266l259 447h-210z" />
    <glyph glyph-name="Z" unicode="Z" horiz-adv-x="667" 
d="M536 715l-145 -160v0l-21 -24l-94 -104v0l-251 -275v-152h620v160h-389l376 411v144h-96zM46 714v-159h289l144 159h-433z" />
    <glyph glyph-name="bracketleft" unicode="[" horiz-adv-x="370" 
d="M69 729h294v-144h-135v-615h135v-144h-294v903z" />
    <glyph glyph-name="backslash" unicode="\" horiz-adv-x="407" 
d="M416 -15h-156l-269 744h156z" />
    <glyph glyph-name="bracketright" unicode="]" horiz-adv-x="370" 
d="M301 -174h-294v144h135v615h-135v144h294v-903z" />
    <glyph glyph-name="asciicircum" unicode="^" horiz-adv-x="600" 
d="M47 332l162 365h182l162 -365h-160l-93 238l-94 -238h-159z" />
    <glyph glyph-name="underscore" unicode="_" horiz-adv-x="500" 
d="M0 -125v50h500v-50h-500z" />
    <glyph glyph-name="quoteleft" unicode="&#x2018;" horiz-adv-x="296" 
d="M228 354h-159v166q2 167 159 194v-80q-33 -6 -54 -32q-20 -27 -18 -62h72v-186z" />
    <glyph glyph-name="a" unicode="a" horiz-adv-x="593" 
d="M373 240q80 18 117 44q46 33 46 87q-4 94 -78 133q-57 30 -163 30q-102 0 -165 -36q-77 -44 -81 -139h159q12 65 85 65q31 0 54 -12q28 -15 28 -42q0 -23 -12 -33q-9 -9 -33 -15q-11 -2 -97 -15q-62 -9 -98 -21q-107 -37 -107 -144q0 -77 51 -119q47 -38 126 -38
q111 0 171 64q8 -44 10 -49h171q-20 41 -20 133v140q-47 -48 -165 -75q-3 -57 -27 -82q-25 -26 -76 -26q-71 0 -71 59q0 33 28 50q19 14 95 29z" />
    <glyph glyph-name="b" unicode="b" horiz-adv-x="630" 
d="M262 133v-117q42 -33 102 -33q116 0 178 88q55 78 55 199q0 110 -54 183q-61 81 -166 81q-96 0 -148 -72h-2v253h-171v-717h163v266q0 74 36 111q29 29 70 29q53 0 79 -45q23 -37 23 -95q0 -61 -23 -102q-28 -48 -80 -48q-38 0 -62 19z" />
    <glyph glyph-name="c" unicode="c" horiz-adv-x="593" 
d="M395 329q0 32 -25 54q-25 21 -58 21q-110 0 -110 -153q0 -56 24 -93q27 -43 77 -43q84 0 97 89h165q-12 -103 -84 -162q-71 -57 -177 -57q-118 0 -194 73q-78 74 -78 193q0 125 73 203q75 80 199 80q103 0 172 -51q75 -56 84 -154h-165z" />
    <glyph glyph-name="d" unicode="d" horiz-adv-x="630" 
d="M86 454q-54 -73 -54 -182q0 -120 55 -197q62 -88 177 -88q59 0 102 32v118q-24 -20 -60 -20q-53 0 -81 48q-23 40 -23 101q0 57 23 95q28 44 81 44q52 0 79 -43q24 -39 24 -101v-259h161v713h-169v-251h-2q-53 71 -148 71q-105 0 -165 -81z" />
    <glyph glyph-name="e" unicode="e" horiz-adv-x="611" 
d="M213 355q30 65 98 65q42 0 71 -31q28 -30 30 -75h-376q-5 -27 -5 -52q0 -129 79 -203q76 -73 205 -73q93 0 160 41q75 45 98 131h-159q-23 -57 -97 -57q-53 0 -84 32q-30 31 -32 86h381q6 138 -63 224q-73 92 -208 92q-91 0 -163 -49q-72 -50 -101 -131h166z" />
    <glyph glyph-name="f" unicode="f" horiz-adv-x="370" 
d="M94 409h-82v110h82q0 111 44 153q43 42 153 42l82 -3v-120q-24 3 -46 3q-33 0 -46 -8q-17 -11 -17 -44v-23h102v-110h-102v-409h-170v409z" />
    <glyph glyph-name="g" unicode="g" horiz-adv-x="611" 
d="M559 519h-160v-236h-1q1 -6 1 -9q0 -52 -25 -84q-27 -37 -78 -37q-48 0 -75 38q-23 34 -23 84q0 55 22 89q25 40 77 40q37 0 62 -21v115q-41 36 -103 36q-106 0 -168 -75q-59 -70 -59 -178q0 -115 55 -183q60 -74 172 -74q89 0 138 76h2v-49q0 -59 -14 -84
q-20 -37 -75 -37q-40 0 -62 11q-23 12 -29 45h-169q13 -95 89 -135q59 -30 165 -30q258 0 258 244v454z" />
    <glyph glyph-name="h" unicode="h" horiz-adv-x="630" 
d="M57 714h170v-266h2q20 39 66 63q44 23 92 23q187 0 187 -201v-333h-170v303q0 91 -85 91q-45 0 -70 -34q-22 -31 -22 -77v-283h-170v714z" />
    <glyph glyph-name="i" unicode="i" horiz-adv-x="296" 
d="M233 584h-170v130h170v-130zM63 519h170v-519h-170v519z" />
    <glyph glyph-name="j" unicode="j" horiz-adv-x="296" 
d="M233 584h-170v130h170v-130zM233 0q0 -96 -41 -136q-39 -38 -131 -38h-86v138h34q54 2 54 48v507h170v-519z" />
    <glyph glyph-name="k" unicode="k" horiz-adv-x="593" 
d="M57 714h170v-368l155 173h197l-190 -196l214 -323h-205l-127 209l-44 -43v-166h-170v714z" />
    <glyph glyph-name="l" unicode="l" horiz-adv-x="296" 
d="M63 714h170v-714h-170v714z" />
    <glyph glyph-name="m" unicode="m" horiz-adv-x="926" 
d="M57 519h165v-71h2q51 86 149 86q114 0 151 -84q62 84 162 84q110 0 153 -75q30 -51 30 -149v-310h-170v305q0 89 -71 89q-50 0 -67 -38q-13 -29 -13 -102v-254h-170v295q0 99 -64 99q-47 0 -66 -31q-21 -32 -21 -110v-253h-170v519z" />
    <glyph glyph-name="n" unicode="n" horiz-adv-x="630" 
d="M57 519h165v-71h2q52 86 163 86q187 0 187 -201v-333h-170v303q0 91 -85 91q-45 0 -70 -34q-22 -31 -22 -77v-283h-170v519z" />
    <glyph glyph-name="o" unicode="o" horiz-adv-x="611" 
d="M381 152q-27 -36 -75 -36q-54 0 -81 47q-21 37 -21 96q0 58 21 97q27 47 81 47t81 -47q22 -39 22 -97q0 -38 -10 -69l114 -113q65 75 65 182q0 117 -76 195q-77 78 -196 78t-195 -78t-76 -195t76 -194q76 -78 195 -78q105 0 178 62z" />
    <glyph glyph-name="p" unicode="p" horiz-adv-x="630" 
d="M261 378q27 25 64 25q53 0 79 -45q23 -37 23 -94q0 -61 -23 -102q-28 -49 -80 -49q-98 0 -103 137v0v268h-164v-694h170v230h2q53 -71 148 -71q105 0 165 81q55 73 55 183q0 120 -55 198q-63 88 -178 88q-59 0 -103 -33v-122z" />
    <glyph glyph-name="q" unicode="q" horiz-adv-x="630" 
d="M397 57h2v-232h171v695h-165v-265q0 -73 -35 -111q-28 -29 -69 -29q-53 0 -79 45q-23 37 -23 94q0 62 24 102q27 49 81 49q37 0 61 -22v120q-44 32 -103 32q-116 0 -178 -88q-55 -78 -55 -199q0 -109 55 -182q60 -82 165 -82q95 0 148 73z" />
    <glyph glyph-name="r" unicode="r" horiz-adv-x="426" 
d="M63 519h165v-91h2q38 101 156 101q23 0 40 -4v-155q-33 10 -65 10q-60 0 -95 -37q-33 -34 -33 -86v-257h-170v519z" />
    <glyph glyph-name="s" unicode="s" horiz-adv-x="556" 
d="M189 171q0 -37 28 -58q24 -18 63 -18q29 0 52 13q28 15 28 42q0 26 -31 40q-4 2 -52 15q-151 38 -161 43q-80 37 -80 127q0 84 80 126q64 33 157 33q233 0 239 -168h-157q0 32 -22 45q-19 13 -54 13q-73 0 -73 -39q0 -31 67 -49q-3 0 125 -26q70 -14 105 -62
q27 -36 27 -78q0 -96 -81 -145q-66 -40 -168 -40q-248 0 -254 186h162z" />
    <glyph glyph-name="t" unicode="t" horiz-adv-x="389" 
d="M370 409h-105v-236q0 -50 61 -50l44 2v-125q-12 0 -46 -3q-30 -2 -47 -2q-108 0 -145 39q-37 38 -37 144v231h-86v110h86v157h170v-157h105v-110z" />
    <glyph glyph-name="u" unicode="u" horiz-adv-x="630" 
d="M573 0h-165v71h-2q-52 -86 -158 -86t-152 60q-40 53 -40 162v312h170v-301q0 -93 84 -93q35 0 60 24q33 30 33 92v278h170v-519z" />
    <glyph glyph-name="v" unicode="v" horiz-adv-x="537" 
d="M366 0h-196l-173 519h177l95 -343h2l96 343h173z" />
    <glyph glyph-name="w" unicode="w" horiz-adv-x="833" 
d="M671 0h-172l-82 345h-2l-81 -345h-172l-162 519h172l87 -336h2l74 336h162l76 -335h2l85 335h173z" />
    <glyph glyph-name="x" unicode="x" horiz-adv-x="537" 
d="M173 272l-165 247h188l73 -124l73 124h180l-162 -244l184 -275h-188l-90 150l-85 -150h-188z" />
    <glyph glyph-name="y" unicode="y" horiz-adv-x="537" 
d="M340 -46q-28 -80 -81 -107q-42 -21 -136 -21h-80v138h59q68 0 68 58q0 16 -43 136l-134 361h180l98 -338h2l98 338h174z" />
    <glyph glyph-name="z" unicode="z" horiz-adv-x="537" 
d="M22 132l259 257h-238v130h454v-129l-259 -260h278v-130h-494v132z" />
    <glyph glyph-name="braceleft" unicode="{" horiz-adv-x="370" 
d="M356 609h-41q-53 0 -53 -65v-164q0 -88 -115 -96v-3q115 -8 115 -105v-165q0 -65 53 -65h41v-120h-118q-135 0 -135 148v173q0 70 -89 70v120q89 0 89 61v188q0 143 135 143h118v-120z" />
    <glyph glyph-name="bar" unicode="|" horiz-adv-x="222" 
d="M39 786h144v-1000h-144v1000z" />
    <glyph glyph-name="braceright" unicode="}" horiz-adv-x="370" 
d="M14 -54h41q53 0 53 65v165q0 97 115 105v3q-115 8 -115 96v164q0 65 -53 65h-41v120h118q135 0 135 -143v-188q0 -61 89 -61v-120q-89 0 -89 -70v-173q0 -148 -135 -148h-118v120z" />
    <glyph glyph-name="asciitilde" unicode="~" horiz-adv-x="600" 
d="M531 233q-58 -86 -125 -86q-45 0 -102 33q-59 35 -115 35q-51 0 -84 -72l-36 130q42 86 125 86q38 0 111 -32q83 -36 102 -36q39 0 88 72z" />
    <glyph glyph-name="exclamdown" unicode="&#xa1;" horiz-adv-x="296" 
d="M241 361h-186v186h186v-186zM61 10l46 301h83l46 -301v-177h-175v177z" />
    <glyph glyph-name="cent" unicode="&#xa2;" horiz-adv-x="630" 
d="M108 79q57 -69 152 -87v146q-40 37 -40 113q0 94 40 129v146q-98 -19 -154 -94q-56 -74 -56 -181q0 -102 58 -172zM347 401q27 -4 46 -23q20 -21 21 -49h164q-9 91 -76 146q-62 51 -155 57v79h-46v-715h46v92q96 6 159 62q65 58 77 154h-164q-12 -74 -72 -85v282z" />
    <glyph glyph-name="sterling" unicode="&#xa3;" horiz-adv-x="630" 
d="M51 87q109 73 109 148q0 38 -13 65h-106v105h67q-43 58 -43 113q0 103 82 161q72 50 178 50q121 0 190 -62q73 -66 69 -186h-165q2 43 -16 72q-22 32 -65 32q-87 0 -87 -79q0 -46 40 -101h119v-105h-89q7 -18 7 -42q0 -69 -69 -122l2 -2q27 19 75 19q17 0 58 -9
q40 -10 60 -10q50 0 89 45l69 -123q-69 -71 -174 -71q-32 0 -104 20q-72 19 -109 19q-46 0 -106 -39z" />
    <glyph glyph-name="fraction" unicode="&#x2044;" horiz-adv-x="167" 
d="M-169 -27l411 751h99l-411 -751h-99z" />
    <glyph glyph-name="yen" unicode="&#xa5;" horiz-adv-x="630" 
d="M481 413h103v-105h-156l-20 -41v-31h176v-105h-176v-131h-186v131h-176v105h176v31l-20 41h-156v105h104l-150 301h186l128 -301h2l128 301h186z" />
    <glyph glyph-name="florin" unicode="&#x192;" horiz-adv-x="630" 
d="M254 421l26 138q17 94 73 133q50 37 148 37l79 -3l-23 -125q-27 3 -46 3q-47 0 -62 -70l-21 -113h96l-20 -110h-96l-57 -305q-20 -103 -70 -142q-48 -38 -152 -38l-77 3l19 125q24 -3 42 -3q51 0 64 62l57 298h-97l20 110h97z" />
    <glyph glyph-name="section" unicode="&#xa7;" horiz-adv-x="630" 
d="M337 483q-73 33 -73 70q0 24 18 39q17 13 43 13q33 0 53 -18q21 -20 21 -52h147q-2 94 -67 147q-60 48 -156 48q-84 0 -148 -43q-72 -50 -72 -131q0 -57 38 -101q-105 -40 -105 -152q0 -105 174 -182q112 -49 120 -54q55 -30 55 -63q0 -28 -20 -45t-50 -17q-37 0 -60 20
q-26 25 -26 59h-147q0 -104 69 -157q61 -47 167 -47q94 0 157 46q70 51 70 142q0 68 -50 111v0v0l-93 72l-181 87q-44 28 -41 54q4 46 42 46q12 0 28 -8l152 -70q68 -36 47 -81q-2 -4 -5 -9l93 -71q61 44 61 130q0 81 -95 136z" />
    <glyph glyph-name="currency" unicode="&#xa4;" horiz-adv-x="630" 
d="M575 551l-61 60l-43 -44q-68 51 -156 51t-157 -51l-45 44l-60 -60l45 -44q-49 -72 -49 -155q0 -88 52 -157l-44 -46l60 -60l45 45q58 -41 131 -47v132q-44 8 -71 43q-29 37 -29 90q0 60 36 98q34 38 86 38q51 0 86 -38t35 -98q0 -54 -29 -91q-29 -36 -74 -43v-131
q76 5 137 50l44 -44l61 61l-44 44q50 69 50 154t-50 155z" />
    <glyph glyph-name="quotesingle" unicode="'" horiz-adv-x="296" 
d="M76 714h144v-360h-144v360z" />
    <glyph glyph-name="quotedblleft" unicode="&#x201c;" horiz-adv-x="500" 
d="M445 354h-159v166q2 167 159 194v-80q-33 -6 -54 -32q-20 -27 -18 -62h72v-186zM214 354h-159v166q2 167 159 194v-80q-33 -6 -54 -32q-20 -27 -18 -62h72v-186z" />
    <glyph glyph-name="guillemotleft" unicode="&#xab;" horiz-adv-x="444" 
d="M240 346l159 128v-137l-86 -67l86 -66v-137l-159 127v152zM45 346l159 128v-137l-86 -67l86 -66v-137l-159 127v152z" />
    <glyph glyph-name="guilsinglleft" unicode="&#x2039;" horiz-adv-x="241" 
d="M41 346l159 128v-137l-86 -67l86 -66v-137l-159 127v152z" />
    <glyph glyph-name="guilsinglright" unicode="&#x203a;" horiz-adv-x="241" 
d="M200 195l-159 -128v137l86 67l-86 66v137l159 -127v-152z" />
    <glyph glyph-name="uniFB01" unicode="&#xfb01;" horiz-adv-x="648" 
d="M94 409h-82v110h82q0 111 44 153q43 42 153 42l82 -3v-120q-24 3 -46 3q-33 0 -46 -8q-17 -11 -17 -44v-23h102v-110h-102v-409h-170v409zM585 584h-170v130h170v-130zM415 519h170v-519h-170v519z" />
    <glyph glyph-name="uniFB02" unicode="&#xfb02;" horiz-adv-x="648" 
d="M585 0h-170v714h170v-714zM94 409h-82v110h82q0 111 44 153q43 42 153 42l82 -3v-120q-24 3 -46 3q-33 0 -46 -8q-17 -11 -17 -44v-23h102v-110h-102v-409h-170v409z" />
    <glyph glyph-name="endash" unicode="&#x2013;" horiz-adv-x="500" 
d="M0 344h500v-144h-500v144z" />
    <glyph glyph-name="dagger" unicode="&#x2020;" horiz-adv-x="630" 
d="M52 376v144h181v194h164v-194h181v-144h-181v-550h-164v550h-181z" />
    <glyph glyph-name="daggerdbl" unicode="&#x2021;" horiz-adv-x="630" 
d="M233 -174v194h-182v144h182v212h-182v144h182v194h164v-194h181v-144h-181v-212h182v-144h-182v-194h-164z" />
    <glyph glyph-name="periodcentered" unicode="&#xb7;" 
d="M92 352q28 27 66 27t66 -27q27 -28 27 -66t-27 -66q-28 -27 -66 -27t-66 27q-27 28 -27 66t27 66z" />
    <glyph glyph-name="paragraph" unicode="&#xb6;" horiz-adv-x="620" 
d="M206 365q-108 0 -166 45q-57 44 -57 126q0 100 71 143q58 35 175 35h314v-883h-120v793h-97v-793h-120v534z" />
    <glyph glyph-name="bullet" unicode="&#x2022;" horiz-adv-x="500" 
d="M124 483q52 52 126 52t127 -52q52 -52 52 -126t-52 -127q-53 -52 -127 -52t-126 52q-52 53 -52 127t52 126z" />
    <glyph glyph-name="quotesinglbase" unicode="&#x201a;" horiz-adv-x="296" 
d="M69 186h159v-166q-2 -167 -159 -194v80q33 6 54 32q20 27 18 62h-72v186z" />
    <glyph glyph-name="quotedblbase" unicode="&#x201e;" horiz-adv-x="500" 
d="M55 186h159v-166q-2 -167 -159 -194v80q33 6 54 32q20 27 18 62h-72v186zM286 186h159v-166q-2 -167 -159 -194v80q33 6 54 32q20 27 18 62h-72v186z" />
    <glyph glyph-name="quotedblright" unicode="&#x201d;" horiz-adv-x="500" 
d="M55 714h159v-166q-2 -167 -159 -194v80q33 6 54 32q20 27 18 62h-72v186zM286 714h159v-166q-2 -167 -159 -194v80q33 6 54 32q20 27 18 62h-72v186z" />
    <glyph glyph-name="guillemotright" unicode="&#xbb;" horiz-adv-x="444" 
d="M204 195l-159 -128v137l86 67l-86 66v137l159 -127v-152zM399 195l-159 -128v137l86 67l-86 66v137l159 -127v-152z" />
    <glyph glyph-name="ellipsis" unicode="&#x2026;" horiz-adv-x="1000" 
d="M740 0v186h186v-186h-186zM407 0v186h186v-186h-186zM74 0v186h186v-186h-186z" />
    <glyph glyph-name="perthousand" unicode="&#x2030;" horiz-adv-x="1167" 
d="M160 -27l404 751h99l-404 -751h-99zM582 62q-25 18 -25 95q0 103 47 103q31 0 41 -40q6 -20 6 -63q0 -77 -29 -96v-75q65 6 97 54q30 44 30 117q0 174 -145 174q-76 0 -113 -52q-32 -45 -32 -122q0 -72 27 -115q31 -49 96 -56v76zM927 62q-25 18 -25 95q0 103 47 103
q31 0 42 -40q5 -21 5 -63q0 -78 -29 -96v-76q65 7 98 55q29 44 29 117q0 174 -145 174q-75 0 -113 -52q-32 -46 -32 -122q0 -73 27 -116q32 -49 96 -56v77zM192 436q-25 18 -25 95q0 103 47 103q31 0 42 -40q5 -21 5 -63q0 -78 -29 -96v-76q65 7 98 55q29 44 29 117
q0 174 -145 174q-75 0 -113 -52q-32 -46 -32 -122q0 -73 27 -116q32 -49 96 -56v77z" />
    <glyph glyph-name="questiondown" unicode="&#xbf;" horiz-adv-x="574" 
d="M392 361h-186v186h186v-186zM543 67q-2 -117 -74 -184q-70 -65 -188 -65q-102 0 -172 50q-78 57 -78 154q0 66 33 108q24 31 90 72q41 28 52 44q14 21 14 65h158v-50q0 -80 -81 -139q-51 -37 -55 -42q-25 -24 -25 -57q0 -28 19 -45q18 -16 46 -16q81 0 86 86v19h175z" />
    <glyph glyph-name="grave" unicode="`" horiz-adv-x="296" 
d="M242 576h-120l-157 149h180z" />
    <glyph glyph-name="acute" unicode="&#xb4;" horiz-adv-x="296" 
d="M322 725l-157 -149h-120l97 149h180z" />
    <glyph glyph-name="circumflex" unicode="&#x2c6;" horiz-adv-x="296" 
d="M88 576h-128l112 149h152l112 -149h-128l-60 80z" />
    <glyph glyph-name="tilde" unicode="&#x2dc;" horiz-adv-x="296" 
d="M338 718q-15 -127 -119 -127q-33 0 -81 18t-64 18q-31 0 -44 -45h-71q7 54 37 92q34 44 84 44q31 0 80 -20q48 -21 65 -21q30 0 42 41h71z" />
    <glyph glyph-name="macron" unicode="&#xaf;" horiz-adv-x="296" 
d="M-14 607v86h325v-86h-325z" />
    <glyph glyph-name="breve" unicode="&#x2d8;" horiz-adv-x="296" 
d="M45 727q10 -68 103 -68t103 68h71q0 -69 -49 -112q-49 -42 -125 -42t-125 42q-49 43 -49 112h71z" />
    <glyph glyph-name="dotaccent" unicode="&#x2d9;" horiz-adv-x="296" 
d="M73 588v125h150v-125h-150z" />
    <glyph glyph-name="dieresis" unicode="&#xa8;" horiz-adv-x="296" 
d="M-33 713h150v-125h-150v125zM180 588v125h150v-125h-150z" />
    <glyph glyph-name="ring" unicode="&#x2da;" horiz-adv-x="296" 
d="M187 631q15 15 15 37q0 23 -15 38q-15 14 -37 14t-37 -14q-15 -15 -15 -38q0 -22 15 -37q16 -15 37 -15q22 0 37 15zM72 593q-31 32 -29 75q0 47 31 76q30 28 76 28q47 0 77 -28q30 -29 30 -76q0 -45 -30 -75q-31 -29 -77 -29q-46 -3 -78 29z" />
    <glyph glyph-name="cedilla" unicode="&#xb8;" horiz-adv-x="296" 
d="M188 0l-40 -60l2 -2q16 5 40 5q33 0 56 -17q29 -22 29 -63q0 -97 -128 -97q-66 0 -118 31l19 45q41 -19 82 -19q51 0 51 35q0 38 -43 38q-17 0 -40 -7l-22 19l57 92h55z" />
    <glyph glyph-name="hungarumlaut" unicode="&#x2dd;" horiz-adv-x="296" 
d="M354 725l-120 -149h-86l81 149h125zM189 725l-120 -149h-86l81 149h125z" />
    <glyph glyph-name="ogonek" unicode="&#x2db;" horiz-adv-x="296" 
d="M210 0q-84 -83 -84 -124q0 -33 34 -33q28 0 59 30l53 -25q-51 -82 -135 -82q-102 2 -110 86q0 75 109 148h74z" />
    <glyph glyph-name="caron" unicode="&#x2c7;" horiz-adv-x="296" 
d="M72 576l-112 149h128l60 -80l60 80h128l-112 -149h-152z" />
    <glyph glyph-name="emdash" unicode="&#x2014;" horiz-adv-x="1000" 
d="M130 344h740v-144h-740v144z" />
    <glyph glyph-name="AE" unicode="&#xc6;" horiz-adv-x="1019" 
d="M320 715l-334 -715h198l58 128h179v138h-123l131 300h32v-265v0v-295v0v-6h517v160h-337v136h306v145h-306v125h328v149h-649z" />
    <glyph glyph-name="ordfeminine" unicode="&#xaa;" horiz-adv-x="377" 
d="M14 592q1 67 52 93q43 21 122 21q86 0 125 -20q51 -26 51 -93v-139q0 -55 13 -92h-129q-6 18 -7 29q-30 -19 -56 -29q-25 -9 -55 -9q-130 0 -130 94q0 73 70 99q-10 -4 141 24q29 6 29 29q0 27 -53 27q-48 0 -55 -34h-118zM239 520q-17 -6 -68 -17q-46 -9 -46 -40
q0 -30 47 -30q67 0 67 68v19z" />
    <glyph glyph-name="Lslash" unicode="&#x141;" horiz-adv-x="611" 
d="M64 190l-66 -45v119l66 45v405h186v-276l180 124v-119l-180 -124v-159h333v-160h-519v190z" />
    <glyph glyph-name="Oslash" unicode="&#xd8;" horiz-adv-x="778" 
d="M691 746l-81 -90v0l-147 -163v0l-223 -242q-18 48 -18 106q0 89 38 146q44 65 128 65q43 0 74 -16l113 128q-79 48 -187 48q-163 0 -259 -108q-92 -103 -92 -263q0 -149 77 -245l-92 -101l57 -50l89 97v0l142 158v0l226 246q18 -46 18 -105q0 -89 -38 -146
q-44 -65 -128 -65q-40 0 -73 17l-114 -129q79 -48 187 -48q163 0 259 108q92 103 92 263q0 146 -77 244l87 95z" />
    <glyph glyph-name="OE" unicode="&#x152;" horiz-adv-x="1111" 
d="M711 298h317v143h-317v125h347v149h-521v-47h-2q-47 62 -159 62q-153 0 -249 -113q-90 -107 -90 -258q0 -152 90 -259q96 -113 249 -113q69 0 120 28v179q-39 -47 -100 -47q-91 0 -136 66q-37 55 -37 146q0 90 37 145q45 66 136 66q64 0 104 -51q35 -46 35 -113v-95v-9v0
v-300h531v160h-355v136z" />
    <glyph glyph-name="ordmasculine" unicode="&#xba;" horiz-adv-x="387" 
d="M49 402q-51 47 -51 127q0 81 51 129q53 48 144 48q92 0 145 -48q51 -48 51 -129q0 -80 -51 -127q-53 -49 -145 -49q-91 0 -144 49zM249 476q15 22 15 53q0 82 -71 82q-36 0 -55 -28q-15 -22 -15 -54q0 -31 15 -53q19 -28 55 -28q37 0 56 28z" />
    <glyph glyph-name="ae" unicode="&#xe6;" horiz-adv-x="944" 
d="M484 468q-54 65 -188 65q-102 0 -164 -36q-77 -44 -81 -138h158q12 64 85 64q46 0 68 -10q28 -13 28 -46v-65.5t-0.5 -92.5t-10.5 -59q-23 -59 -99 -59q-32 0 -53 11q-28 15 -28 46q0 51 78 65q11 3 37 7l34 6v102q-8 -3 -17 -6q-11 -2 -97 -15q-62 -9 -98 -21
q-106 -37 -106 -144q0 -77 52 -118q49 -38 134 -38q143 0 239 79q66 -79 200 -79q88 0 153 46q70 49 92 125h-160q-27 -56 -99 -56q-46 0 -74 30q-25 27 -29 70v124q7 40 33 65q28 28 69 28q46 0 73 -30q25 -29 25 -75h-161v-95h331q10 130 -60 220q-74 95 -202 95
q-100 0 -162 -65z" />
    <glyph glyph-name="dotlessi" unicode="&#x131;" horiz-adv-x="296" 
d="M63 0v519h170v-519h-170z" />
    <glyph glyph-name="lslash" unicode="&#x142;" horiz-adv-x="296" 
d="M63 270l-78 -59v112l78 59v332h170v-202l78 59v-112l-78 -59v-400h-170v270z" />
    <glyph glyph-name="oslash" unicode="&#xf8;" horiz-adv-x="611" 
d="M46 -2l59 69q-73 76 -73 192q0 118 76 196q77 79 197 79q93 0 160 -48l51 60l44 -38l-52 -60q71 -74 71 -189q0 -118 -77 -195q-77 -79 -197 -79q-92 0 -159 47l-58 -66zM241 141q23 -26 64 -26q55 0 82 47q22 38 22 97q0 34 -9 65zM371 377q-27 27 -66 27q-54 0 -81 -48
q-22 -38 -22 -97q0 -37 10 -67z" />
    <glyph glyph-name="oe" unicode="&#x153;" horiz-adv-x="963" 
d="M933 218q3 140 -62 223q-70 92 -206 92q-49 0 -98 -20q-52 -22 -80 -57q-56 77 -181 77t-200 -79q-74 -77 -74 -202q0 -120 71 -193q72 -74 191 -74q126 0 186 76q64 -76 186 -76q95 0 164 42q76 45 98 130h-161q-15 -32 -37 -45q-21 -12 -57 -12q-42 0 -73 21
q-30 21 -41 57h-166q-24 -63 -84 -63q-107 0 -107 146q0 60 23 97q29 45 86 45q55 0 79 -51h171q27 66 99 66q92 0 104 -106h-184v0h-177q4 -25 4 -53q0 -21 -3 -41h176v0h353z" />
    <glyph glyph-name="germandbls" unicode="&#xdf;" horiz-adv-x="630" 
d="M57 502q0 99 60 159q66 68 191 68q99 0 167 -46q77 -53 77 -149q0 -106 -87 -137v-2q58 -12 94 -64q33 -49 33 -111q0 -102 -64 -164q-64 -61 -167 -61q-37 0 -84 5v129q20 -4 43 -4q48 0 75 31q27 29 27 78q0 114 -143 105v101q47 -4 77 13q37 21 37 67q0 79 -79 79
q-57 0 -75 -36q-12 -24 -12 -92v-471h-170v502z" />
    <glyph glyph-name="uni00B9" unicode="&#xb9;" horiz-adv-x="378" 
d="M54 523v90q128 0 134 84h100v-419h-125v245h-109z" />
    <glyph glyph-name="logicalnot" unicode="&#xac;" horiz-adv-x="600" 
d="M408 305h-360v144h504v-329h-144v185z" />
    <glyph glyph-name="uni00B5" unicode="&#xb5;" horiz-adv-x="630" 
d="M573 0h-165v71h-2q-52 -86 -158 -86q-13 0 -22 6v-165h-170v693h170v-301q0 -93 84 -93q35 0 60 24q33 30 33 92v278h170v-519z" />
    <glyph glyph-name="trademark" unicode="&#x2122;" horiz-adv-x="1000" 
d="M714 475l89 239h156v-412h-110v270h-2l-89 -270h-88l-89 270h-2v-270h-110v412h156zM386 619h-110v-317h-125v317h-110v95h345v-95z" />
    <glyph glyph-name="Eth" unicode="&#xd0;" horiz-adv-x="759" 
d="M64 296h-72v144h72v274h307q164 0 257 -94t93 -260q0 -174 -94 -268q-91 -92 -256 -92h-307v296zM250 440h158v-144h-158v-136h88q106 2 151 48q46 46 46 153q0 193 -197 193h-88v-114z" />
    <glyph glyph-name="onehalf" unicode="&#xbd;" horiz-adv-x="945" 
d="M557 0q0 91 71 146q25 20 118 73q59 35 59 62q0 52 -56 52q-66 0 -68 -84h-125q0 84 48 130q49 49 144 49q80 0 129 -34q53 -37 53 -104q0 -49 -36 -84q-24 -23 -87 -56q-66 -32 -79 -55h194v-95h-365zM15 523v90q128 0 134 84h100v-419h-125v245h-109zM174 -27l411 751
h99l-411 -751h-99z" />
    <glyph glyph-name="plusminus" unicode="&#xb1;" horiz-adv-x="600" 
d="M48 132h504v-144h-504v144zM228 518h144v-101h180v-144h-180v-101h-144v101h-180v144h180v101z" />
    <glyph glyph-name="Thorn" unicode="&#xde;" horiz-adv-x="685" 
d="M250 290h125q100 0 100 89q0 94 -100 94h-125v-183zM250 714v-92h153q111 0 179 -52q79 -60 79 -178q0 -246 -258 -246h-153v-146h-186v714h186z" />
    <glyph glyph-name="onequarter" unicode="&#xbc;" horiz-adv-x="945" 
d="M730 179v123l-106 -123h106zM919 179v-90h-64v-89h-126v89h-199v99l203 231h122v-240h64zM26 523v90q128 0 134 84h100v-419h-125v245h-109zM199 -27l411 751h99l-411 -751h-99z" />
    <glyph glyph-name="divide" unicode="&#xf7;" horiz-adv-x="600" 
d="M230 117q28 28 70 28t71 -28q28 -29 28 -71q0 -40 -28 -69q-30 -30 -71 -30t-70 30q-29 29 -29 69q0 42 29 71zM230 531q28 28 70 28t71 -28q28 -29 28 -71q0 -40 -28 -69q-30 -30 -71 -30t-70 30q-29 29 -29 69q0 42 29 71zM48 181v144h504v-144h-504z" />
    <glyph glyph-name="brokenbar" unicode="&#xa6;" horiz-adv-x="222" 
d="M183 411h-144v250h144v-250zM39 161h144v-250h-144v250z" />
    <glyph glyph-name="degree" unicode="&#xb0;" horiz-adv-x="400" 
d="M258 483q22 25 22 63t-22 63q-22 26 -58 26t-58 -26q-22 -25 -22 -63t22 -63q22 -26 58 -26t58 26zM87 659q47 47 113 47t113 -47t47 -113t-47 -113t-113 -47t-113 47t-47 113t47 113z" />
    <glyph glyph-name="thorn" unicode="&#xfe;" horiz-adv-x="630" 
d="M256 375q-35 -37 -35 -110q0 -150 103 -150q52 0 79 48q23 41 23 102q0 57 -22 94q-27 45 -79 45q-41 0 -69 -29zM227 462h2q53 72 148 72q106 0 166 -88q53 -78 53 -198q0 -109 -54 -182q-61 -81 -165 -81q-95 0 -148 71h-2v-230h-170v888h170v-252z" />
    <glyph glyph-name="threequarters" unicode="&#xbe;" horiz-adv-x="945" 
d="M741 179v123l-106 -123h106zM930 179v-90h-64v-89h-126v89h-199v99l203 231h122v-240h64zM253 -27l411 751h99l-411 -751h-99zM177 535l29 -1q66 0 66 39q0 17 -18 28q-17 10 -39 10q-64 0 -62 -56h-125q4 151 186 151q78 0 126 -27q57 -33 57 -97q0 -70 -69 -80v-2
q77 -10 77 -95q0 -68 -58 -104q-52 -32 -133 -32q-189 0 -199 142v23h125q0 -34 19 -52q20 -18 54 -18q26 0 45 10q22 12 22 31q0 49 -74 49l-29 -1v82z" />
    <glyph glyph-name="uni00B2" unicode="&#xb2;" horiz-adv-x="378" 
d="M7 278q0 91 71 146q24 20 118 73q59 35 59 62q0 52 -56 52q-67 0 -68 -84h-123q-2 84 46 130q49 49 144 49q80 0 129 -34q53 -37 53 -104q0 -49 -37 -84q-24 -23 -86 -56q-67 -32 -79 -55h194v-95h-365z" />
    <glyph glyph-name="registered" unicode="&#xae;" horiz-adv-x="800" 
d="M132 631q-118 -105 -118 -275q0 -168 116 -273q108 -97 265 -99v95q-108 3 -181 80q-75 78 -75 197q0 121 77 200q75 78 185 78q108 0 183 -78q78 -79 78 -200q0 -110 -66 -187q-64 -75 -161 -88v-96q147 12 246 108q106 103 106 263q0 170 -118 275q-110 98 -268 98
q-159 0 -269 -98zM388 395v-102l75 -137h95l-103 174q115 5 115 106q0 68 -46 97q-40 26 -125 26h-151v-403h98v332h51q75 0 75 -42q0 -30 -14 -42q-12 -9 -41 -9h-29z" />
    <glyph glyph-name="minus" unicode="&#x2212;" horiz-adv-x="600" 
d="M48 181v144h504v-144h-504z" />
    <glyph glyph-name="eth" unicode="&#xf0;" horiz-adv-x="611" 
d="M213 648q-60 39 -102 52l113 78q76 -26 113 -61l124 68l68 -61l-119 -65q74 -62 121 -163q48 -105 48 -214q0 -138 -77 -219q-74 -78 -197 -78q-120 0 -197 73q-76 73 -76 184q0 109 72 184q71 73 171 73q66 0 97 -21l2 2q-27 55 -87 112l-128 -70l-67 60zM224 158
q27 -43 81 -43t82 43q22 35 22 84t-22 83q-28 44 -82 44t-81 -44q-22 -34 -22 -83t22 -84z" />
    <glyph glyph-name="multiply" unicode="&#xd7;" horiz-adv-x="600" 
d="M54 397l102 102l144 -144l144 144l102 -102l-144 -144l144 -144l-102 -102l-144 144l-144 -144l-102 102l144 144z" />
    <glyph glyph-name="uni00B3" unicode="&#xb3;" horiz-adv-x="378" 
d="M167 537l29 -1q66 0 66 37q0 17 -18 28q-17 10 -39 10q-64 0 -62 -56h-125q4 151 186 151q78 0 126 -27q57 -33 57 -97q0 -70 -69 -80v-2q77 -10 77 -95q0 -68 -58 -104q-52 -32 -133 -32q-189 0 -199 142v23h125q0 -34 19 -52q20 -18 54 -18q26 0 45 10q22 12 22 31
q0 51 -74 51l-29 -1v82z" />
    <glyph glyph-name="copyright" unicode="&#xa9;" horiz-adv-x="800" 
d="M593 303q-9 -74 -61 -117q-49 -40 -117 -40q-92 0 -151 62q-57 60 -57 152q0 94 55 154q57 61 151 61q70 0 116 -39q49 -40 60 -114h-90q-12 58 -86 58q-89 0 -89 -118q0 -52 25 -86q26 -35 66 -35q80 0 84 62h94zM132 631q-118 -105 -118 -275q0 -168 116 -273
q108 -97 265 -99v95q-108 3 -181 80q-75 78 -75 197q0 121 77 200q75 78 185 78q108 0 183 -78q78 -79 78 -200q0 -110 -66 -187q-64 -75 -161 -88v-96q147 12 246 108q106 103 106 263q0 170 -118 275q-110 98 -268 98q-159 0 -269 -98z" />
    <glyph glyph-name="Aacute" unicode="&#xc1;" 
 />
    <glyph glyph-name="Acircumflex" unicode="&#xc2;" 
 />
    <glyph glyph-name="Adieresis" unicode="&#xc4;" 
 />
    <glyph glyph-name="Agrave" unicode="&#xc0;" 
 />
    <glyph glyph-name="Aring" unicode="&#xc5;" 
 />
    <glyph glyph-name="Atilde" unicode="&#xc3;" 
 />
    <glyph glyph-name="Ccedilla" unicode="&#xc7;" 
 />
    <glyph glyph-name="Eacute" unicode="&#xc9;" 
 />
    <glyph glyph-name="Ecircumflex" unicode="&#xca;" 
 />
    <glyph glyph-name="Edieresis" unicode="&#xcb;" 
 />
    <glyph glyph-name="Egrave" unicode="&#xc8;" 
 />
    <glyph glyph-name="Iacute" unicode="&#xcd;" 
 />
    <glyph glyph-name="Icircumflex" unicode="&#xce;" 
 />
    <glyph glyph-name="Idieresis" unicode="&#xcf;" 
 />
    <glyph glyph-name="Igrave" unicode="&#xcc;" 
 />
    <glyph glyph-name="Ntilde" unicode="&#xd1;" 
 />
    <glyph glyph-name="Oacute" unicode="&#xd3;" 
 />
    <glyph glyph-name="Ocircumflex" unicode="&#xd4;" 
 />
    <glyph glyph-name="Odieresis" unicode="&#xd6;" 
 />
    <glyph glyph-name="Ograve" unicode="&#xd2;" 
 />
    <glyph glyph-name="Otilde" unicode="&#xd5;" 
 />
    <glyph glyph-name="Scaron" unicode="&#x160;" 
 />
    <glyph glyph-name="Uacute" unicode="&#xda;" 
 />
    <glyph glyph-name="Ucircumflex" unicode="&#xdb;" 
 />
    <glyph glyph-name="Udieresis" unicode="&#xdc;" 
 />
    <glyph glyph-name="Ugrave" unicode="&#xd9;" 
 />
    <glyph glyph-name="Yacute" unicode="&#xdd;" 
 />
    <glyph glyph-name="Ydieresis" unicode="&#x178;" 
 />
    <glyph glyph-name="Zcaron" unicode="&#x17d;" 
 />
    <glyph glyph-name="aacute" unicode="&#xe1;" 
 />
    <glyph glyph-name="acircumflex" unicode="&#xe2;" 
 />
    <glyph glyph-name="adieresis" unicode="&#xe4;" 
 />
    <glyph glyph-name="agrave" unicode="&#xe0;" 
 />
    <glyph glyph-name="aring" unicode="&#xe5;" 
 />
    <glyph glyph-name="atilde" unicode="&#xe3;" 
 />
    <glyph glyph-name="ccedilla" unicode="&#xe7;" 
 />
    <glyph glyph-name="eacute" unicode="&#xe9;" 
 />
    <glyph glyph-name="ecircumflex" unicode="&#xea;" 
 />
    <glyph glyph-name="edieresis" unicode="&#xeb;" 
 />
    <glyph glyph-name="egrave" unicode="&#xe8;" 
 />
    <glyph glyph-name="iacute" unicode="&#xed;" 
 />
    <glyph glyph-name="icircumflex" unicode="&#xee;" 
 />
    <glyph glyph-name="idieresis" unicode="&#xef;" 
 />
    <glyph glyph-name="igrave" unicode="&#xec;" 
 />
    <glyph glyph-name="ntilde" unicode="&#xf1;" 
 />
    <glyph glyph-name="oacute" unicode="&#xf3;" 
 />
    <glyph glyph-name="ocircumflex" unicode="&#xf4;" 
 />
    <glyph glyph-name="odieresis" unicode="&#xf6;" 
 />
    <glyph glyph-name="ograve" unicode="&#xf2;" 
 />
    <glyph glyph-name="otilde" unicode="&#xf5;" 
 />
    <glyph glyph-name="scaron" unicode="&#x161;" 
 />
    <glyph glyph-name="uacute" unicode="&#xfa;" 
 />
    <glyph glyph-name="ucircumflex" unicode="&#xfb;" 
 />
    <glyph glyph-name="udieresis" unicode="&#xfc;" 
 />
    <glyph glyph-name="ugrave" unicode="&#xf9;" 
 />
    <glyph glyph-name="yacute" unicode="&#xfd;" 
 />
    <glyph glyph-name="ydieresis" unicode="&#xff;" 
 />
    <glyph glyph-name="zcaron" unicode="&#x17e;" 
 />
    <glyph glyph-name="uni0080" horiz-adv-x="630" 
d="M553 522q-76 49 -141 49q-94 0 -132 -101h251l-33 -85h-234q-2 -26 -2 -35l2 -35h209l-36 -85h-157q27 -107 136 -107q74 0 153 61v-154q-71 -38 -160 -38q-126 0 -202 76q-66 65 -84 162h-88l33 85h44l-1 37q0 15 2 33h-78l33 85h57q26 104 95 166q79 70 201 70
q85 0 183 -50z" />
    <glyph glyph-name="uni0080" unicode="&#x20ac;" horiz-adv-x="630" 
d="M553 522q-76 49 -141 49q-94 0 -132 -101h251l-33 -85h-234q-2 -26 -2 -35l2 -35h209l-36 -85h-157q27 -107 136 -107q74 0 153 61v-154q-71 -38 -160 -38q-126 0 -202 76q-66 65 -84 162h-88l33 85h44l-1 37q0 15 2 33h-78l33 85h57q26 104 95 166q79 70 201 70
q85 0 183 -50z" />
    <glyph glyph-name="notequal" unicode="&#x2260;" horiz-adv-x="593" 
d="M282 75l-79 -162l-133 66l47 96h-92v151h167l45 90h-212v152h287l79 161l132 -66l-46 -95h91v-152h-166l-45 -90h211v-151h-286z" />
    <glyph glyph-name="infinity" unicode="&#x221e;" horiz-adv-x="881" 
d="M784 121q-55 -63 -148 -63q-103 0 -196 117q-92 -116 -191 -116q-94 0 -150 61q-54 59 -54 154q0 93 53 151q54 60 146 60q105 0 196 -125q88 125 197 125q92 0 146 -60q53 -58 53 -151q0 -94 -52 -153zM688 330q-21 22 -56 22q-51 0 -115 -83q55 -78 118 -78q35 0 55 24
q18 22 18 57q0 36 -20 58zM245 352q-34 0 -54 -24q-19 -23 -19 -57q0 -35 20 -56q20 -23 55 -23q54 0 116 77q-62 83 -118 83z" />
    <glyph glyph-name="lessequal" unicode="&#x2264;" horiz-adv-x="593" 
d="M25 290v150l543 152v-155l-332 -72l332 -84v-156zM25 -51v152h543v-152h-543z" />
    <glyph glyph-name="greaterequal" unicode="&#x2265;" horiz-adv-x="593" 
d="M25 125v156l331 84l-331 72v155l543 -152v-150zM25 -51v152h543v-152h-543z" />
    <glyph glyph-name="partialdiff" unicode="&#x2202;" horiz-adv-x="588" 
d="M493 108q-66 -122 -210 -122q-106 0 -172 64q-67 65 -67 172q0 98 63 163q64 66 161 66q64 0 126 -42q0 77 -24 129q-32 68 -100 68q-60 0 -120 -57l-81 91q90 81 197 81q145 0 218 -114q60 -96 60 -249q0 -156 -51 -250zM293 339q-49 0 -78 -38q-26 -35 -26 -86
q0 -47 23 -80q25 -38 71 -38q108 0 108 197q-45 45 -98 45z" />
    <glyph glyph-name="summation" unicode="&#x2211;" horiz-adv-x="698" 
d="M29 -214v130l289 377l-277 362v131h615v-150h-413l253 -343l-269 -357h441v-150h-639z" />
    <glyph glyph-name="product" unicode="&#x220f;" horiz-adv-x="757" 
d="M556 -214v851h-354v-851h-153v1000h659v-1000h-152z" />
    <glyph glyph-name="pi" unicode="&#x3c0;" horiz-adv-x="625" 
d="M600 20q-56 -29 -106 -29q-125 0 -125 145v222h-149v-358h-150v358h-70v137h600v-137h-81v-164q0 -41 2 -50q7 -26 36 -26q12 0 43 12v-110z" />
    <glyph glyph-name="integral" unicode="&#x222b;" horiz-adv-x="657" 
d="M541 637q-20 -20 -51 -20q-49 0 -61 52q-10 41 -8 35q-5 16 -18 16q-19 0 -19 -40q0 -32 4 -96q4 -65 4 -97l1 -317q0 -187 -17 -247q-38 -137 -176 -137q-52 0 -91 24q-46 28 -46 77q0 30 20 49q19 18 49 18q50 0 62 -51l7 -36q5 -16 17 -16q20 0 20 40q0 28 -4 82
t-4 82v410q0 145 27 212q43 108 166 108q51 0 91 -23q47 -27 47 -74q0 -31 -20 -51z" />
    <glyph glyph-name="uni2126" unicode="&#x2126;" horiz-adv-x="776" 
d="M680 256q-49 -78 -131 -95v-21h174v-140h-299v218q129 26 129 180q0 77 -42 127q-45 54 -121 54t-123 -55q-45 -53 -45 -131q0 -150 128 -175v-218h-299v140h173v21q-83 23 -130 95q-43 66 -43 157q0 143 100 228q95 80 240 80q142 0 235 -81q98 -85 98 -225
q0 -89 -44 -159z" />
    <glyph glyph-name="radical" unicode="&#x221a;" horiz-adv-x="603" 
d="M385 -214h-137l-142 290l-57 -27l-56 118l193 88l106 -236l156 767h161z" />
    <glyph glyph-name="approxequal" unicode="&#x2248;" horiz-adv-x="593" 
d="M578 497q-4 -76 -42 -137q-46 -74 -117 -74q-37 0 -126 31q-88 30 -126 30q-48 0 -54 -55h-98q0 76 42 139q47 70 120 70q39 0 125 -29t124 -29q48 0 53 54h99zM578 252q-5 -80 -39 -139q-42 -73 -115 -73q-37 0 -132 31q-96 30 -126 30q-47 0 -53 -54h-98q0 71 41 136
q46 73 113 73q21 0 181 -44q53 -16 72 -16q45 0 56 56h100z" />
    <glyph glyph-name="uni2206" unicode="&#x2206;" horiz-adv-x="718" 
d="M12 0l251 712h170l273 -712h-694zM350 541l-130 -396h270z" />
    <glyph glyph-name="lozenge" unicode="&#x25ca;" horiz-adv-x="593" 
d="M364 -35h-138l-191 391l193 391h136l194 -391zM296 593l-106 -237l106 -237l105 237z" />
    <glyph glyph-name="glyph244" horiz-adv-x="316" 
d="M247 609h-154v81q0 103 140 103v-42q-49 -6 -55 -37h69v-105z" />
    <glyph glyph-name="uniF004" unicode="&#xf004;" horiz-adv-x="316" 
d="M78 -50h154v-81q0 -103 -140 -103v42q49 6 55 37h-69v105z" />
    <glyph glyph-name="uniF004" unicode="&#xf6c3;" horiz-adv-x="316" 
d="M78 -50h154v-81q0 -103 -140 -103v42q49 6 55 37h-69v105z" />
    <glyph glyph-name="glyph246" horiz-adv-x="296" 
d="M287 714l-88 -149h-104l35 149h157z" />
    <glyph glyph-name="Amacron" unicode="&#x100;" 
 />
    <glyph glyph-name="Abreve" unicode="&#x102;" 
 />
    <glyph glyph-name="Aogonek" unicode="&#x104;" 
 />
    <glyph glyph-name="Cacute" unicode="&#x106;" 
 />
    <glyph glyph-name="Ccircumflex" unicode="&#x108;" 
 />
    <glyph glyph-name="Ccaron" unicode="&#x10c;" 
 />
    <glyph glyph-name="Cdotaccent" unicode="&#x10a;" 
 />
    <glyph glyph-name="Dcaron" unicode="&#x10e;" 
 />
    <glyph glyph-name="Ecaron" unicode="&#x11a;" 
 />
    <glyph glyph-name="Emacron" unicode="&#x112;" 
 />
    <glyph glyph-name="Ebreve" unicode="&#x114;" 
 />
    <glyph glyph-name="Edotaccent" unicode="&#x116;" 
 />
    <glyph glyph-name="Eogonek" unicode="&#x118;" 
 />
    <glyph glyph-name="Gcircumflex" unicode="&#x11c;" 
 />
    <glyph glyph-name="Gbreve" unicode="&#x11e;" 
 />
    <glyph glyph-name="Gdotaccent" unicode="&#x120;" 
 />
    <glyph glyph-name="Gcommaaccent" unicode="&#x122;" 
 />
    <glyph glyph-name="Hcircumflex" unicode="&#x124;" 
 />
    <glyph glyph-name="Hbar" unicode="&#x126;" 
 />
    <glyph glyph-name="Itilde" unicode="&#x128;" 
 />
    <glyph glyph-name="Imacron" unicode="&#x12a;" 
 />
    <glyph glyph-name="Idotaccent" unicode="&#x130;" 
 />
    <glyph glyph-name="Iogonek" unicode="&#x12e;" 
 />
    <glyph glyph-name="Jcircumflex" unicode="&#x134;" 
 />
    <glyph glyph-name="Kcommaaccent" unicode="&#x136;" 
 />
    <glyph glyph-name="Lacute" unicode="&#x139;" 
 />
    <glyph glyph-name="Lcaron" unicode="&#x13d;" 
 />
    <glyph glyph-name="Lcommaaccent" unicode="&#x13b;" 
 />
    <glyph glyph-name="Nacute" unicode="&#x143;" 
 />
    <glyph glyph-name="Ncaron" unicode="&#x147;" 
 />
    <glyph glyph-name="Ncommaaccent" unicode="&#x145;" 
 />
    <glyph glyph-name="Omacron" unicode="&#x14c;" 
 />
    <glyph glyph-name="Obreve" unicode="&#x14e;" 
 />
    <glyph glyph-name="Ohungarumlaut" unicode="&#x150;" 
 />
    <glyph glyph-name="Racute" unicode="&#x154;" 
 />
    <glyph glyph-name="Rcaron" unicode="&#x158;" 
 />
    <glyph glyph-name="Rcommaaccent" unicode="&#x156;" 
 />
    <glyph glyph-name="Sacute" unicode="&#x15a;" 
 />
    <glyph glyph-name="Scircumflex" unicode="&#x15c;" 
 />
    <glyph glyph-name="Scedilla" unicode="&#x15e;" 
 />
    <glyph glyph-name="Scedilla" unicode="&#xf6c1;" 
 />
    <glyph glyph-name="Scommaaccent" unicode="&#x218;" 
 />
    <glyph glyph-name="Tcaron" unicode="&#x164;" 
 />
    <glyph glyph-name="Tcommaaccent" unicode="&#x162;" 
 />
    <glyph glyph-name="Tbar" unicode="&#x166;" 
 />
    <glyph glyph-name="Utilde" unicode="&#x168;" 
 />
    <glyph glyph-name="Umacron" unicode="&#x16a;" 
 />
    <glyph glyph-name="Ubreve" unicode="&#x16c;" 
 />
    <glyph glyph-name="Uring" unicode="&#x16e;" 
 />
    <glyph glyph-name="Uhungarumlaut" unicode="&#x170;" 
 />
    <glyph glyph-name="Uogonek" unicode="&#x172;" 
 />
    <glyph glyph-name="Wcircumflex" unicode="&#x174;" 
 />
    <glyph glyph-name="Ycircumflex" unicode="&#x176;" 
 />
    <glyph glyph-name="Zacute" unicode="&#x179;" 
 />
    <glyph glyph-name="Zdotaccent" unicode="&#x17b;" 
 />
    <glyph glyph-name="amacron" unicode="&#x101;" 
 />
    <glyph glyph-name="abreve" unicode="&#x103;" 
 />
    <glyph glyph-name="aogonek" unicode="&#x105;" 
 />
    <glyph glyph-name="cacute" unicode="&#x107;" 
 />
    <glyph glyph-name="ccircumflex" unicode="&#x109;" 
 />
    <glyph glyph-name="ccaron" unicode="&#x10d;" 
 />
    <glyph glyph-name="cdotaccent" unicode="&#x10b;" 
 />
    <glyph glyph-name="dcaron" unicode="&#x10f;" 
 />
    <glyph glyph-name="dcroat" unicode="&#x111;" 
 />
    <glyph glyph-name="ecaron" unicode="&#x11b;" 
 />
    <glyph glyph-name="emacron" unicode="&#x113;" 
 />
    <glyph glyph-name="ebreve" unicode="&#x115;" 
 />
    <glyph glyph-name="edotaccent" unicode="&#x117;" 
 />
    <glyph glyph-name="eogonek" unicode="&#x119;" 
 />
    <glyph glyph-name="gcircumflex" unicode="&#x11d;" 
 />
    <glyph glyph-name="gbreve" unicode="&#x11f;" 
 />
    <glyph glyph-name="gdotaccent" unicode="&#x121;" 
 />
    <glyph glyph-name="gcommaaccent" unicode="&#x123;" 
 />
    <glyph glyph-name="hcircumflex" unicode="&#x125;" 
 />
    <glyph glyph-name="hbar" unicode="&#x127;" 
 />
    <glyph glyph-name="itilde" unicode="&#x129;" 
 />
    <glyph glyph-name="imacron" unicode="&#x12b;" 
 />
    <glyph glyph-name="iogonek" unicode="&#x12f;" 
 />
    <glyph glyph-name="uniF6BE" unicode="&#xf6be;" 
 />
    <glyph glyph-name="uniF6BE" unicode="&#xfb0f;" 
 />
    <glyph glyph-name="jcircumflex" unicode="&#x135;" 
 />
    <glyph glyph-name="kcommaaccent" unicode="&#x137;" 
 />
    <glyph glyph-name="lacute" unicode="&#x13a;" 
 />
    <glyph glyph-name="lcaron" unicode="&#x13e;" 
 />
    <glyph glyph-name="lcommaaccent" unicode="&#x13c;" 
 />
    <glyph glyph-name="nacute" unicode="&#x144;" 
 />
    <glyph glyph-name="ncaron" unicode="&#x148;" 
 />
    <glyph glyph-name="ncommaaccent" unicode="&#x146;" 
 />
    <glyph glyph-name="napostrophe" unicode="&#x149;" 
 />
    <glyph glyph-name="omacron" unicode="&#x14d;" 
 />
    <glyph glyph-name="obreve" unicode="&#x14f;" 
 />
    <glyph glyph-name="ohungarumlaut" unicode="&#x151;" 
 />
    <glyph glyph-name="racute" unicode="&#x155;" 
 />
    <glyph glyph-name="rcommaaccent" unicode="&#x157;" 
 />
    <glyph glyph-name="rcaron" unicode="&#x159;" 
 />
    <glyph glyph-name="sacute" unicode="&#x15b;" 
 />
    <glyph glyph-name="scircumflex" unicode="&#x15d;" 
 />
    <glyph glyph-name="scedilla" unicode="&#x15f;" 
 />
    <glyph glyph-name="scedilla" unicode="&#xf6c2;" 
 />
    <glyph glyph-name="scommaaccent" unicode="&#x219;" 
 />
    <glyph glyph-name="tcaron" unicode="&#x165;" 
 />
    <glyph glyph-name="tcommaaccent" unicode="&#x163;" 
 />
    <glyph glyph-name="tbar" unicode="&#x167;" 
 />
    <glyph glyph-name="utilde" unicode="&#x169;" 
 />
    <glyph glyph-name="umacron" unicode="&#x16b;" 
 />
    <glyph glyph-name="ubreve" unicode="&#x16d;" 
 />
    <glyph glyph-name="uring" unicode="&#x16f;" 
 />
    <glyph glyph-name="uhungarumlaut" unicode="&#x171;" 
 />
    <glyph glyph-name="uogonek" unicode="&#x173;" 
 />
    <glyph glyph-name="wcircumflex" unicode="&#x175;" 
 />
    <glyph glyph-name="ycircumflex" unicode="&#x177;" 
 />
    <glyph glyph-name="zacute" unicode="&#x17a;" 
 />
    <glyph glyph-name="zdotaccent" unicode="&#x17c;" 
 />
    <glyph glyph-name="IJ" unicode="&#x132;" 
 />
    <glyph glyph-name="ij" unicode="&#x133;" 
 />
    <glyph glyph-name="Ldot" unicode="&#x13f;" horiz-adv-x="611" 
d="M64 714h186v-554h333v-160h-519v714zM357 370v146h133v-146h-133z" />
    <glyph glyph-name="ldot" unicode="&#x140;" horiz-adv-x="440" 
d="M63 714h170v-714h-170v714zM293 366v157h126v-157h-126z" />
    <glyph glyph-name="estimated" unicode="&#x212e;" horiz-adv-x="600" 
d="M157 259v-181q59 -59 145 -59q122 0 193 120l35 -21q-87 -135 -228 -135q-115 0 -188 80q-70 78 -70 196q0 119 70 196q72 80 188 80q115 0 187 -77q71 -77 72 -199h-404zM448 295v145q-63 60 -147 60t-144 -60v-145h291z" />
    <glyph glyph-name="afii61289" unicode="&#x2113;" horiz-adv-x="500" 
d="M465 56q-85 -70 -181 -70q-82 0 -129 44q-44 41 -44 107v25l-54 -45h-2l-54 84l109 86v233q0 85 54 143t138 58q73 0 117 -43q43 -42 43 -112q0 -145 -196 -303v-101q0 -63 57 -63q36 0 88 37h2zM301 619q-35 0 -35 -69v-157q70 71 70 164q0 62 -35 62z" />
    <glyph glyph-name="glyph363" horiz-adv-x="500" 
 />
    <glyph glyph-name="glyph363" horiz-adv-x="500" 
 />
    <glyph glyph-name="uni000D" unicode="&#xd;" horiz-adv-x="0" 
 />
    <glyph glyph-name="uni00A0" unicode="&#xa0;" 
 />
    <glyph glyph-name="uniF8FF" unicode="&#xf8ff;" horiz-adv-x="512" 
d="M278 117v67h-56v-67h56zM271 234q0 53 6 72t43 52q63 58 63 120q0 59 -35 95t-89 36q-122 0 -135 -137l50 -8q11 95 82 95q31 0 53 -24q23 -25 23 -61q0 -35 -50 -83q-31 -31 -46 -59q-13 -25 -13 -81l2 -17h46zM50 50v617h412v-617h-412zM0 718v-718h512v718h-512z" />
    <glyph glyph-name="uni00AD" unicode="&#xad;" horiz-adv-x="407" 
d="M48 200v144h311v-144h-311z" />
    <glyph glyph-name="Dcroat" unicode="&#x110;" 
 />
    <glyph glyph-name="uni021A" unicode="&#x21a;" 
 />
    <glyph glyph-name="glyph370" horiz-adv-x="296" 
d="M242 762h-120l-157 149h180z" />
    <glyph glyph-name="glyph371" horiz-adv-x="296" 
d="M322 911l-157 -149h-120l97 149h180z" />
    <glyph glyph-name="glyph372" horiz-adv-x="296" 
d="M88 762h-128l112 149h152l112 -149h-128l-60 80z" />
    <glyph glyph-name="glyph373" horiz-adv-x="296" 
d="M72 762l-112 149h128l60 -80l60 80h128l-112 -149h-152z" />
    <glyph glyph-name="glyph374" horiz-adv-x="296" 
d="M338 904q-15 -127 -119 -127q-33 0 -81 18t-64 18q-31 0 -44 -45h-71q7 54 37 92q34 44 84 44q31 0 80 -20q48 -21 65 -21q30 0 42 41h71z" />
    <glyph glyph-name="glyph375" horiz-adv-x="296" 
d="M-33 899h150v-125h-150v125zM180 774v125h150v-125h-150z" />
    <glyph glyph-name="glyph376" horiz-adv-x="296" 
d="M-14 793v86h325v-86h-325z" />
    <glyph glyph-name="uni02C9" unicode="&#x2c9;" horiz-adv-x="296" 
d="M-14 607v86h325v-86h-325z" />
    <glyph glyph-name="glyph378" horiz-adv-x="296" 
d="M45 913q10 -68 103 -68t103 68h71q0 -69 -49 -112q-49 -42 -125 -42t-125 42q-49 43 -49 112h71z" />
    <glyph glyph-name="glyph379" horiz-adv-x="296" 
d="M187 809q15 15 15 37q0 23 -15 38q-15 14 -37 14t-37 -14q-15 -15 -15 -38q0 -22 15 -37q16 -15 37 -15q22 0 37 15zM72 771q-31 32 -29 75q0 47 31 76q30 28 76 28q47 0 77 -28q30 -29 30 -76q0 -45 -30 -75q-31 -29 -77 -29q-46 -3 -78 29z" />
    <glyph glyph-name="glyph380" horiz-adv-x="296" 
d="M354 911l-120 -149h-86l81 149h125zM189 911l-120 -149h-86l81 149h125z" />
    <glyph glyph-name="glyph381" horiz-adv-x="296" 
d="M73 774v125h150v-125h-150z" />
    <glyph glyph-name="uni021B" unicode="&#x21b;" 
 />
    <glyph glyph-name="uni2219" unicode="&#x2219;" 
d="M92 352q28 27 66 27t66 -27q27 -28 27 -66t-27 -66q-28 -27 -66 -27t-66 27q-27 28 -27 66t27 66z" />
    <glyph glyph-name="uni2215" unicode="&#x2215;" horiz-adv-x="167" 
d="M-169 -27l411 751h99l-411 -751h-99z" />
    <glyph glyph-name="Delta" unicode="&#x394;" horiz-adv-x="718" 
d="M12 0l251 712h170l273 -712h-694zM350 541l-130 -396h270z" />
    <glyph glyph-name="Omega" unicode="&#x3a9;" horiz-adv-x="776" 
d="M680 256q-49 -78 -131 -95v-21h174v-140h-299v218q129 26 129 180q0 77 -42 127q-45 54 -121 54t-123 -55q-45 -53 -45 -131q0 -150 128 -175v-218h-299v140h173v21q-83 23 -130 95q-43 66 -43 157q0 143 100 228q95 80 240 80q142 0 235 -81q98 -85 98 -225
q0 -89 -44 -159z" />
    <glyph glyph-name="mu" unicode="&#x3bc;" horiz-adv-x="630" 
d="M573 0h-165v71h-2q-52 -86 -158 -86q-13 0 -22 6v-165h-170v693h170v-301q0 -93 84 -93q35 0 60 24q33 30 33 92v278h170v-519z" />
    </font>
</defs>
</svg>
